<svg xmlns="http://www.w3.org/2000/svg" viewBox="0 0 24 24" aria-hidden="true">
  <path fill="#0077FF" d="M15.684 0H8.316C1.592 0 0 1.592 0 8.316v7.368C0 22.408 1.592 24 8.316 24h7.368C22.408 24 24 22.408 24 15.684V8.316C24 1.592 22.387 0 15.684 0zm3.692 17.123h-1.744c-.66 0-.864-.525-2.05-1.727-1.033-1-1.49-1.135-1.744-1.135-.356 0-.458.102-.458.593v1.576c0 .423-.135.677-1.253.677-1.845 0-3.896-1.118-5.335-3.195C4.934 10.576 4.24 8.346 4.24 7.847c0-.254.102-.491.593-.491h1.744c.44 0 .61.203.78.678.863 2.491 2.303 4.675 2.896 4.675.22 0 .322-.102.322-.66V9.721c-.068-1.186-.695-1.287-.695-1.71 0-.204.17-.407.44-.407h2.744c.373 0 .508.203.508.643v3.474c0 .372.17.508.271.508.22 0 .407-.136.813-.542 1.254-1.406 2.151-3.574 2.151-3.574.119-.254.322-.491.763-.491h1.744c.525 0 .644.27.525.643-.22 1.034-2.354 3.214-2.354 3.214-.203.254-.271.373 0 .678.203.254.864 1.084 1.135 1.406.728.847 1.287 1.576 1.44 2.05.17.491-.085.744-.576.744z"/>
</svg>
