<svg xmlns="http://www.w3.org/2000/svg" viewBox="0 0 64 64">
  <rect width="64" height="64" rx="12" fill="#1a1f1a"/>
  <circle cx="32" cy="18" r="11" fill="#f4c870"/>
  <path d="M12 45.5c2.6-1.6 5.5-2.4 8.8-2.4 4.4 0 8.1 1.3 11.2 3.9 3.1-2.6 6.8-3.9 11.2-3.9 3.3 0 6.2.8 8.8 2.4V52c-2.7-1.6-5.6-2.4-8.8-2.4-4.3 0-8 1.3-11.2 4-3.2-2.7-6.9-4-11.2-4-3.2 0-6.1.8-8.8 2.4Z" fill="#efd39b"/>
  <path d="M32 47c-3.1-2.6-6.8-3.9-11.2-3.9-3.3 0-6.2.8-8.8 2.4v1.9c2.7-1.6 5.6-2.4 8.8-2.4 4.3 0 8 1.2 11.2 3.7 3.2-2.5 6.9-3.7 11.2-3.7 3.2 0 6.1.8 8.8 2.4v-1.9c-2.6-1.6-5.5-2.4-8.8-2.4-4.4 0-8.1 1.3-11.2 3.9Z" fill="#c9a15a"/>
  <path d="M9.5 52.5h16.1c2.7 0 4.9.8 6.4 2.4 1.5-1.6 3.7-2.4 6.4-2.4h16.1L50.8 58H13.2Z" fill="#6a4328"/>
  <path d="M17.5 41.5h2.2v8.5h-2.2Zm26.8 0h2.2v8.5h-2.2ZM30.9 40.2h2.2v9.8h-2.2Z" fill="#8b5e34"/>
  <path d="M18.6 17.8 14.8 24h2.7l-3.5 5.5h3l-3.8 6.1h4l-3.7 5.9h10.3l-3.7-5.9h4l-3.8-6.1h3L20.9 24h2.7Zm26.8 0L41.6 24h2.7l-3.5 5.5h3l-3.8 6.1h4l-3.7 5.9h10.3l-3.7-5.9h4l-3.8-6.1h3L47.7 24h2.7Zm-13.4 2.8-4.6 7.1h3.2L26.4 34h3.5l-4.2 6.4h12.6L34.1 34h3.5l-4.2-6.3h3.2Z" fill="#335f33"/>
  <path d="M32 20.6 27.4 27.7h2.4l-2.6 3.9h2.8l-2.7 4.2h9.4l-2.7-4.2h2.8l-2.6-3.9h2.4Z" fill="#4b7f3b"/>
  <path d="M17.4 22.8h2.2l1.3 18.7h-1.4Zm27 0h2.2l-2.1 18.7h-1.4Z" fill="#b9b4a2"/>
  <path d="M31 44.8h2v8.4h-2Z" fill="#8b5e34"/>
</svg>
